<svg width="91" height="116" viewBox="0 0 91 116" fill="none" xmlns="http://www.w3.org/2000/svg">
<path d="M33.912 115.709C24.3873 115.709 16.5897 113.93 10.519 110.371C4.44833 106.812 1.413 101.003 1.413 92.944C1.413 92.1067 1.413 91.374 1.413 90.746C1.51766 90.0133 1.62233 89.4377 1.727 89.019C2.14566 86.0883 3.03533 82.4773 4.396 78.186C5.75666 73.8947 7.32666 69.3417 9.106 64.527C10.8853 59.6077 12.6123 54.793 14.287 50.083C15.9617 45.373 17.3747 41.0817 18.526 37.209C19.6773 33.2317 20.253 30.0393 20.253 27.632C20.253 24.9107 19.3633 23.55 17.584 23.55C15.5953 23.55 13.1357 25.0677 10.205 28.103C7.27433 31.0337 4.18666 35.168 0.941997 40.506L-3.34904e-06 40.035C-3.34904e-06 33.127 1.36066 27.161 4.082 22.137C6.80333 17.113 10.4143 12.9787 14.915 9.73399C19.4157 6.38466 24.4397 3.92499 29.987 2.355C35.5343 0.784997 41.134 -2.38419e-06 46.786 -2.38419e-06C53.7987 -2.38419e-06 60.3927 1.15133 66.568 3.454C72.7433 5.652 77.7673 8.84433 81.64 13.031C85.6173 17.2177 87.606 22.3463 87.606 28.417C87.606 39.3023 80.9597 47.7803 67.667 53.851C75.517 55.6303 81.2737 58.6133 84.937 62.8C88.6003 66.9867 90.432 71.6443 90.432 76.773C90.432 81.2737 89.0713 85.8267 86.35 90.432C83.7333 94.9327 79.9653 99.1193 75.046 102.992C70.1267 106.76 64.1607 109.848 57.148 112.255C50.24 114.558 42.4947 115.709 33.912 115.709ZM40.035 49.141C44.8497 49.2457 49.0363 48.513 52.595 46.943C56.2583 45.2683 59.0843 43.175 61.073 40.663C63.1663 38.0463 64.213 35.3773 64.213 32.656C64.213 29.0973 62.329 25.9573 58.561 23.236C54.793 20.41 48.8793 18.997 40.82 18.997C41.2387 20.9857 41.5003 22.9743 41.605 24.963C41.8143 26.9517 41.919 28.888 41.919 30.772C41.919 33.8073 41.7097 36.8427 41.291 39.878C40.977 42.9133 40.5583 46.001 40.035 49.141ZM38.308 96.555C42.8087 96.555 46.786 95.6653 50.24 93.886C53.694 92.002 56.4153 89.647 58.404 86.821C60.3927 83.8903 61.387 80.9073 61.387 77.872C61.387 73.6853 59.3983 69.8127 55.421 66.254C51.4437 62.6953 45.216 60.4973 36.738 59.66C36.3193 62.9047 35.4297 66.3587 34.069 70.022C32.813 73.6853 31.6093 77.1917 30.458 80.541C29.3067 83.8903 28.731 86.821 28.731 89.333C28.731 91.531 29.4113 93.3103 30.772 94.671C32.1327 95.927 34.6447 96.555 38.308 96.555Z" fill="#F5F5F5"/>
</svg>
